<svg width="64" height="64" viewBox="0 0 64 64" fill="none" xmlns="http://www.w3.org/2000/svg">
<path d="M31.999 63.6025C18.9975 63.6025 8.01606 54.1364 6.17699 41.4761L3.18949 46.9699C2.7837 47.6608 1.94812 48.0538 1.26846 47.6222L0.698745 47.4103C0.36995 47.1975 0.135509 46.8684 0.0432076 46.4902C-0.0490935 46.1121 0.00769388 45.7133 0.201995 45.3752L5.34141 36.0151C5.34841 36.0032 5.34741 35.9893 5.3544 35.9775L5.72222 35.3509C5.92612 35.0044 6.24895 34.7797 6.60777 34.6956C6.96459 34.6085 7.3574 34.6619 7.69523 34.8787L8.31092 35.2707C8.32291 35.2776 8.32891 35.2885 8.3409 35.2974L17.4363 41.3801C18.116 41.8117 18.3379 42.7214 17.9331 43.4143L17.5233 43.8607C17.1175 44.5526 16.194 44.5803 15.5143 44.1478L10.077 40.4853C11.3644 50.7581 19.7412 58.6393 30 59.554V19.8596H22.005C21.4749 19.8596 20.9664 19.651 20.5915 19.2797C20.2166 18.9084 20.006 18.4049 20.006 17.8798C20.006 17.3548 20.2166 16.8512 20.5915 16.48C20.9664 16.1087 21.4749 15.9001 22.005 15.9001H30.079C30.095 15.8457 30.1129 15.7912 30.1339 15.7388C28.3776 15.3169 26.8153 14.3227 25.698 12.9158C24.5807 11.509 23.9732 9.77111 23.973 7.98124C23.9729 6.93309 24.1813 5.89519 24.5862 4.9268C24.9912 3.95841 25.5848 3.07851 26.3332 2.33736C27.0815 1.59621 27.97 1.00832 28.9478 0.607271C29.9256 0.206222 30.9736 -0.000129958 32.032 6.14038e-08C33.0903 5.33412e-08 34.1382 0.206448 35.1159 0.607555C36.0936 1.00866 36.9819 1.59657 37.7302 2.33771C38.4784 3.07885 39.072 3.95871 39.4768 4.92703C39.8817 5.89535 40.0901 6.93318 40.0899 7.98124C40.0899 11.7625 37.4353 14.9301 33.8701 15.7536C33.8881 15.8011 33.905 15.8496 33.919 15.9001H41.995C42.5251 15.9001 43.0336 16.1087 43.4085 16.48C43.7834 16.8512 43.994 17.3548 43.994 17.8798C43.994 18.4049 43.7834 18.9084 43.4085 19.2797C43.0336 19.651 42.5251 19.8596 41.995 19.8596H33.998V59.553C44.2588 58.6393 52.6426 50.7531 53.928 40.4813L48.4847 44.1468C47.8051 44.5793 46.8815 44.5516 46.4757 43.8597L46.0669 43.4133C45.8729 43.0753 45.8163 42.6767 45.9086 42.2988C46.0009 41.9209 46.2351 41.592 46.5637 41.3791L55.6591 35.2964C55.6711 35.2865 55.6771 35.2766 55.6891 35.2697L56.3048 34.8777C56.6426 34.6609 57.0354 34.6075 57.3912 34.6946C57.7511 34.7787 58.0739 35.0034 58.2778 35.3499L58.6456 35.9765C58.6526 35.9883 58.6506 36.0022 58.6586 36.0141L63.798 45.3742C63.9923 45.7123 64.0491 46.1111 63.9568 46.4893C63.8645 46.8674 63.6301 47.1965 63.3013 47.4094L62.7315 47.6212C62.0519 48.0528 61.2163 47.6608 60.8105 46.9679L57.827 41.4811C55.9839 54.1384 44.9935 63.6025 31.999 63.6025ZM32.032 3.95944C30.9553 3.96049 29.923 4.38455 29.1616 5.13856C28.4003 5.89256 27.9721 6.91492 27.971 7.98124C27.9724 9.0474 28.4007 10.0695 29.162 10.8233C29.9233 11.5771 30.9555 12.001 32.032 12.0021C33.1083 12.0007 34.1402 11.5767 34.9013 10.8229C35.6625 10.0692 36.0906 9.04723 36.0919 7.98124C36.0909 6.91509 35.6628 5.89289 34.9017 5.13891C34.1406 4.38493 33.1085 3.96075 32.032 3.95944C34.2709 3.95944 32.032 3.95944 32.032 3.95944Z" fill="#1B1B1B"/>
</svg>
