<svg width="64" height="64" viewBox="0 0 64 64" fill="none" xmlns="http://www.w3.org/2000/svg">
<path d="M15.601 3.97969L19.6135 15.9823L28.0316 3.97969H15.601ZM48.8373 3.97969H35.9605L44.8438 15.3309L48.8373 3.97969ZM58.909 17.8768L52.4806 5.67661L48.188 17.8768H58.909ZM4.94805 17.8768H16.0291L11.7716 5.14142L4.94805 17.8768ZM58.3678 21.8486H46.7905L36.2966 51.6714L58.3678 21.8486ZM21.5742 21.8486L31.795 52.4161L42.5499 21.8486H21.5742ZM5.80136 21.8486L27.3063 51.6039L17.3576 21.8486H5.80136ZM52.0074 0.00794349C53.1078 0.00794349 54.4253 0.799313 54.9355 1.76643L63.6817 18.3633C64.1919 19.3315 64.0759 20.8417 63.4257 21.7225L32.9204 62.9452C32.5953 63.383 32.1711 63.6025 31.748 63.6025C31.3198 63.6025 30.8916 63.3771 30.5695 62.9313L0.556427 21.4057C-0.0838092 20.517 -0.187848 19.0028 0.329343 18.0397L9.05257 1.76246C9.56876 0.797327 10.8912 0.00794349 11.9917 0.00794349H31.6839C31.7269 0.00397174 31.77 0.000992936 31.813 0C31.863 0 31.915 0.00297881 31.966 0.00794349H52.0074ZM31.955 5.33504L23.1588 17.8758H41.7677L31.955 5.33504Z" fill="white"/>
</svg>
