<svg width="64" height="48" viewBox="0 0 64 48" fill="none" xmlns="http://www.w3.org/2000/svg">
<path d="M0.00518822 32.4101C0.0650178 31.5495 3.10935 12.6999 3.6179 9.66182C3.66676 9.37162 3.70565 9.06056 3.74753 8.73459C4.14141 5.68161 4.87332 0 14.0611 0C14.5901 0 15.0973 0.209409 15.4713 0.58216C15.8454 0.954911 16.0555 1.46047 16.0555 1.98762C16.0555 2.51477 15.8454 3.02033 15.4713 3.39308C15.0973 3.76583 14.5901 3.97524 14.0611 3.97524C8.38133 3.97524 8.08218 6.29877 7.70426 9.24144C7.6544 9.61809 7.60853 9.97884 7.55169 10.3148C7.31437 11.7429 6.22048 17.4553 5.29612 23.0435C7.80666 21.0466 10.9229 19.9579 14.1349 19.9557C19.2424 19.9557 23.7077 22.6986 26.1298 26.7861C27.3483 26.2952 29.3217 25.7347 31.9781 25.7347C34.6764 25.7347 36.7086 26.2912 37.9092 26.7414C40.3991 22.6777 44.9412 19.9557 50.0307 19.9557C53.1937 19.9557 56.1104 21.0071 58.4477 22.7791C57.5363 17.2655 56.4823 11.712 56.249 10.3148C56.1918 9.95794 56.1413 9.6001 56.0974 9.24144C55.7195 6.29877 55.4193 3.97524 49.7405 3.97524C49.2116 3.97524 48.7043 3.76583 48.3303 3.39308C47.9563 3.02033 47.7462 2.51477 47.7462 1.98762C47.7462 1.46047 47.9563 0.954911 48.3303 0.58216C48.7043 0.209409 49.2116 0 49.7405 0C58.9293 0 59.6622 5.68161 60.0531 8.73559C60.096 9.06056 60.1349 9.37162 60.1828 9.66281C60.6913 12.6999 63.9341 31.6737 63.9949 32.5343C64.0109 32.7579 63.9889 32.9766 63.9351 33.1823C63.945 33.396 63.95 33.6116 63.95 33.8283C63.95 41.4906 57.7178 47.7019 50.0297 47.7019C42.3436 47.7019 35.9029 41.4896 35.9029 33.8283C35.9024 32.674 36.0501 31.5244 36.3427 30.4076C35.4781 30.1045 33.9694 29.7099 31.9781 29.7099C29.9389 29.7099 28.4651 30.1422 27.6435 30.4682C27.9172 31.5674 28.0552 32.6958 28.0543 33.8283C28.0543 41.4906 21.822 47.7019 14.1339 47.7019C6.44784 47.7019 0.00718254 41.4906 0.00718254 33.8283C0.00718254 33.5282 0.0171541 33.23 0.0370973 32.9339C0.00318527 32.7611 -0.00754502 32.5847 0.00518822 32.4091V32.4101ZM59.8188 32.8176C59.7898 32.4206 59.7549 32.024 59.7141 31.628C58.707 27.2254 54.7482 23.9309 50.0307 23.9309C50.0307 23.9309 55.527 23.9309 50.0307 23.9309C44.5343 23.9309 39.8916 28.4627 39.8916 33.8293C39.8916 39.1939 44.5343 43.7256 50.0307 43.7256C55.5071 43.7256 59.9614 39.2863 59.9614 33.8283C59.9614 33.6693 59.9574 33.5113 59.9504 33.3542C59.877 33.1839 59.8325 33.0025 59.8188 32.8176ZM14.1349 23.9309C8.63859 23.9309 3.99582 28.4627 3.99582 33.8293C3.99582 39.1939 8.63859 43.7256 14.1349 43.7256C19.6113 43.7256 24.0656 39.2863 24.0656 33.8283C24.0656 28.3703 19.6113 23.9309 14.1339 23.9309C14.1339 23.9309 19.6313 23.9309 14.1339 23.9309H14.1349Z" fill="white"/>
</svg>
