<svg width="64" height="52" viewBox="0 0 64 52" fill="none" xmlns="http://www.w3.org/2000/svg">
<path d="M60 3.97332H4V37.7575H60V3.97332ZM60 0C62.2 0 64 1.78799 64 3.97332V37.7575C64 39.9428 62.2 41.7308 60 41.7308H34V47.7037H44C44.5304 47.7037 45.0391 47.913 45.4142 48.2856C45.7893 48.6581 46 49.1635 46 49.6904C46 50.2173 45.7893 50.7226 45.4142 51.0951C45.0391 51.4677 44.5304 51.677 44 51.677H20C19.4696 51.677 18.9609 51.4677 18.5858 51.0951C18.2107 50.7226 18 50.2173 18 49.6904C18 49.1635 18.2107 48.6581 18.5858 48.2856C18.9609 47.913 19.4696 47.7037 20 47.7037H30V41.7308H4C1.8 41.7308 0 39.9428 0 37.7575V3.97332C0 1.78799 1.8 0 4 0H60Z" fill="#1B1B1B"/>
</svg>
